<?xml version="1.0" encoding="UTF-8" standalone="no"?>
<svg
   data-name="Layer 2"
   viewBox="0 0 256 256"
   x="0px"
   y="0px"
   version="1.1"
   id="svg16"
   sodipodi:docname="cost.svg"
   width="48"
   height="48"
   inkscape:version="1.2.1 (9c6d41e410, 2022-07-14)"
   xmlns:inkscape="http://www.inkscape.org/namespaces/inkscape"
   xmlns:sodipodi="http://sodipodi.sourceforge.net/DTD/sodipodi-0.dtd"
   xmlns="http://www.w3.org/2000/svg"
   xmlns:svg="http://www.w3.org/2000/svg"
   xmlns:rdf="http://www.w3.org/1999/02/22-rdf-syntax-ns#"
   xmlns:cc="http://creativecommons.org/ns#"
   xmlns:dc="http://purl.org/dc/elements/1.1/">
  <defs
     id="defs20" />
  <sodipodi:namedview
     id="namedview18"
     pagecolor="#ffffff"
     bordercolor="#000000"
     borderopacity="0.25"
     inkscape:showpageshadow="2"
     inkscape:pageopacity="0.0"
     inkscape:pagecheckerboard="0"
     inkscape:deskcolor="#d1d1d1"
     showgrid="false"
     inkscape:zoom="3.1341176"
     inkscape:cx="121.72485"
     inkscape:cy="159.375"
     inkscape:window-width="3440"
     inkscape:window-height="1377"
     inkscape:window-x="1912"
     inkscape:window-y="-8"
     inkscape:window-maximized="1"
     inkscape:current-layer="svg16" />
  <title
     id="title2">dollareuroyen</title>
  <path
     d="m 164.34344,114.63 a 54.997342,39.81 0 0 1 -29.35679,-6.24 l -4.90431,9.72 c 7.14234,3.62 19.34094,6.23 31.19416,6.38 v 14.64 h 12.84793 v -15.08 c 20.99873,-2.46 32.21647,-13.19 32.21647,-24.65 0,-12.9 -10.60988,-20.44 -31.60863,-26.53 -17.73839,-5.22 -25.28135,-9 -25.28135,-16.53 0,-5.8 5.9128,-12.47 21.62039,-12.47 a 50.093032,36.26 0 0 1 25.68201,4.92 l 5.09772,-9.56 c -5.9128,-2.47 -14.27084,-4.79 -26.49708,-5.08 V 20.08 h -12.64069 v 14.65 c -18.76071,2.18 -30.79355,11.27 -30.79355,23.35 0,12.61 12.84792,19.28 33.63943,25.08 15.08593,4.35 23.04336,9.28 23.04336,17.26 0,8.26 -9.80863,14.21 -24.25907,14.21 z"
     id="path4"
     style="fill:#008000;stroke-width:1.17537" />
  <path
     d="m 102.31799,193.22 a 19.974746,17.93 0 0 1 -4.456158,3.72 18.481932,16.59 0 0 1 -10.093207,2.77 16.309553,14.64 0 0 1 -8.745218,-2.22 23.394851,21 0 0 1 -6.851349,-5.88 26.792674,24.05 0 0 1 -1.548516,-2.24 h 15.652269 l 6.517137,-8.47 H 67.080893 a 40.740462,36.57 0 0 1 -0.935794,-7.81 c 0,-0.84 0,-1.67 0.100264,-2.51 h 20.052729 l 6.517137,-8.47 H 68.027827 a 30.903484,27.74 0 0 1 3.464666,-6.82 22.0023,19.75 0 0 1 6.684243,-6 16.599204,14.9 0 0 1 9.279958,-2.33 19.428867,17.44 0 0 1 4.968621,0.61 18.526494,16.63 0 0 1 5.024322,1.94 17.824648,16 0 0 1 4.456163,3.6 20.865979,18.73 0 0 1 3.34212,5.6 l 11.4412,-8.09 a 31.527347,28.3 0 0 0 -11.07357,-12.42 29.923128,26.86 0 0 0 -17.757801,-4.77 31.07059,27.89 0 0 0 -15.596568,3.44 37.153251,33.35 0 0 0 -11.496898,9 45.675661,41 0 0 0 -7.140999,12.53 c -0.434476,1.23 -0.81325,2.47 -1.114041,3.71 h -15.39604 l -6.517137,8.47 h 20.63203 c 0,0.69 -0.08912,1.38 -0.08912,2.07 a 51.747182,46.45 0 0 0 0.835531,8.25 H 37.113203 l -6.517137,8.47 h 23.974152 a 48.38278,43.43 0 0 0 6.684243,11.06 39.537298,35.49 0 0 0 11.441196,9.26 28.05154,25.18 0 0 0 14.638492,3.55 32.73051,29.38 0 0 0 9.157414,-1.24 36.2843,32.57 0 0 0 8.845477,-3.55 32.485421,29.16 0 0 0 7.50864,-5.71 26.436181,23.73 0 0 0 5.02432,-7.82 l -12.25445,-7.21 a 20.821417,18.69 0 0 1 -3.29756,5.51 z"
     id="path6"
     style="fill:#0000ff;stroke-width:1.05548" />
  <path
     d="M 207.88,143.31 A 76.63,76.63 0 1 0 94.88,109.64 65.68,65.68 0 1 0 78.7,239 65.46,65.46 0 0 0 126.3,218.5 58.19,58.19 0 0 0 237.2,193.86 58.55,58.55 0 0 0 207.88,143.31 Z M 165.34,8 A 71.63,71.63 0 1 1 93.7,79.61 71.71,71.71 0 0 1 165.34,8 Z M 78.7,234 A 60.67,60.67 0 1 1 97.76,115.71 77.11,77.11 0 0 0 134.62,149.79 60.66,60.66 0 0 1 78.7,234 Z M 179,247 a 52.87,52.87 0 0 1 -49.08,-32.69 65.59,65.59 0 0 0 11,-62.11 76.36,76.36 0 0 0 62,-5.88 A 53.19,53.19 0 0 1 179,247 Z"
     id="path8" />
  <polygon
     points="174.85,202.12 174.85,208.89 163.8,208.89 159.77,214.72 174.85,214.72 174.85,223.54 182.85,223.54 182.85,214.72 194.22,214.72 198.26,208.89 182.85,208.89 182.85,202.65 183.33,201.77 194.22,201.77 198.26,195.93 186.49,195.93 203.69,164.14 194.52,164.14 179.01,194.33 163.51,164.14 154.33,164.14 171.51,195.93 163.8,195.93 159.77,201.77 174.66,201.77 "
     id="polygon10"
     style="fill:#aa8800"
     transform="matrix(1.2973496,0,0,1.2256044,-50.037865,-43.093017)" />
  <metadata
     id="metadata249">
    <rdf:RDF>
      <cc:Work
         rdf:about="">
        <dc:title>dollareuroyen</dc:title>
      </cc:Work>
    </rdf:RDF>
  </metadata>
</svg>
